<svg width="16" height="16" viewBox="0 0 16 16" fill="none" xmlns="http://www.w3.org/2000/svg">
<path fill-rule="evenodd" clip-rule="evenodd" d="M3.75 10.4998C3.98012 10.4998 4.16667 10.6864 4.16667 10.9165V12.1665H11.8333V10.9165C11.8333 10.6864 12.0199 10.4998 12.25 10.4998H13.0833C13.3135 10.4998 13.5 10.6864 13.5 10.9165V12.9998C13.5 13.4601 13.1269 13.8332 12.6667 13.8332H3.33333C2.8731 13.8332 2.5 13.4601 2.5 12.9998V10.9165C2.5 10.6864 2.68655 10.4998 2.91667 10.4998H3.75ZM8.39578 9.57418L11.5206 6.44939C11.6833 6.28667 11.6833 6.02285 11.5206 5.86013L10.9313 5.27088C10.7686 5.10816 10.5048 5.10816 10.3421 5.27088L8.83325 6.77958L8.83333 2.58317C8.83333 2.35305 8.64678 2.1665 8.41667 2.1665H7.58333C7.35321 2.1665 7.16667 2.35305 7.16667 2.58317L7.16624 6.57747L5.86024 5.27088C5.69753 5.10816 5.43371 5.10816 5.27099 5.27088L4.68173 5.86013C4.51902 6.02285 4.51902 6.28667 4.68173 6.44939L7.80652 9.57418C7.96924 9.7369 8.23306 9.7369 8.39578 9.57418Z" fill="#42464E"/>
</svg>
