<svg width="16" height="16" viewBox="0 0 16 16" fill="none" xmlns="http://www.w3.org/2000/svg">
<g clip-path="url(#clip0_4265_2272)">
<path fill-rule="evenodd" clip-rule="evenodd" d="M2.33404 9.3335C2.51814 9.3335 2.66738 9.48273 2.66738 9.66683L2.66764 13.3335H6.33664C6.52073 13.3335 6.66997 13.4827 6.66997 13.6668V14.3335C6.66997 14.5176 6.52073 14.6668 6.33664 14.6668H1.99967C1.63148 14.6668 1.33301 14.3684 1.33301 14.0002V9.66683C1.33301 9.48273 1.48225 9.3335 1.66634 9.3335H2.33404ZM13.9997 1.3335C14.3679 1.3335 14.6663 1.63197 14.6663 2.00016V6.3335C14.6663 6.51759 14.5171 6.66683 14.333 6.66683H13.6663C13.4822 6.66683 13.333 6.51759 13.333 6.3335V2.66683H9.66634C9.48225 2.66683 9.33301 2.51759 9.33301 2.3335V1.66683C9.33301 1.48273 9.48225 1.3335 9.66634 1.3335H13.9997Z" fill="#42464E"/>
</g>
<defs>
<clipPath id="clip0_4265_2272">
<rect width="16" height="16" fill="white"/>
</clipPath>
</defs>
</svg>
